{"accessors" : [{"bufferView" : 0, "byteOffset" : 0, "componentType" : 5123, "count" : 4524, "type" : "SCALAR", "max" : [2609], "min" : [0]}, {"bufferView" : 1, "byteOffset" : 0, "componentType" : 5126, "count" : 2610, "type" : "VEC3", "max" : [1.1714260578155518, 3.3148140907287598, -0.060495998710393906], "min" : [-1.239137053489685, 0.18047399818897247, -2.4284019470214844], "name" : "POSITION"}, {"bufferView" : 1, "byteOffset" : 12, "componentType" : 5126, "count" : 2610, "type" : "VEC3", "max" : [0.9787235260009766, 1.0000044107437134, 0.9787235260009766], "min" : [-0.9989925026893616, -1.0000044107437134, -0.9787235260009766], "name" : "NORMAL"}, {"bufferView" : 1, "byteOffset" : 24, "componentType" : 5126, "count" : 2610, "type" : "VEC2", "max" : [1, 0.9900000095367432], "min" : [0, 0], "name" : "TEXCOORD_0"}, {"bufferView" : 0, "byteOffset" : 9048, "componentType" : 5123, "count" : 4524, "type" : "SCALAR", "max" : [2615], "min" : [0]}, {"bufferView" : 2, "byteOffset" : 0, "componentType" : 5126, "count" : 2616, "type" : "VEC3", "max" : [1.506111979484558, 2.183832883834839, 3.6793739795684814], "min" : [-1.5311659574508667, 0.18383200466632843, 0.02130899950861931], "name" : "POSITION"}, {"bufferView" : 2, "byteOffset" : 12, "componentType" : 5126, "count" : 2616, "type" : "VEC3", "max" : [0.9256401658058167, 1.0000044107437134, 0.9256401658058167], "min" : [-0.9991540312767029, -1.0000044107437134, -0.9842381477355957], "name" : "NORMAL"}, {"bufferView" : 2, "byteOffset" : 24, "componentType" : 5126, "count" : 2616, "type" : "VEC2", "max" : [1, 0.9900000095367432], "min" : [0, 0], "name" : "TEXCOORD_0"}], "asset" : {"generator" : "Aspose.3D 21.6", "version" : "2.0"}, "buffers" : [{"uri" : "data:application/octet-stream;base64,", "byteLength" : 307644}], "bufferViews" : [{"buffer" : 0, "byteOffset" : 0, "byteLength" : 18096, "target" : 34963}, {"buffer" : 0, "byteOffset" : 18100, "byteLength" : 144768, "byteStride" : 32, "target" : 34962}, {"buffer" : 0, "byteOffset" : 162872, "byteLength" : 144768, "byteStride" : 32, "target" : 34962}], "materials" : [{"name" : "Material.001", "pbrMetallicRoughness" : {"baseColorFactor" : [0.5, 0.5, 0.5, 1], "metallicFactor" : 0, "roughnessFactor" : 1}, "emissiveFactor" : [0, 0, 0], "alphaMode" : "OPAQUE", "doubleSided" : false}, {"name" : "Material.001", "pbrMetallicRoughness" : {"baseColorFactor" : [0.5, 0.5, 0.5, 1], "metallicFactor" : 0, "roughnessFactor" : 1}, "emissiveFactor" : [0, 0, 0], "alphaMode" : "OPAQUE", "doubleSided" : false}], "meshes" : [{"primitives" : [{"attributes" : {"POSITION" : 1, "NORMAL" : 2, "TEXCOORD_0" : 3}, "indices" : 0, "material" : 0, "mode" : 4}]}, {"primitives" : [{"attributes" : {"POSITION" : 5, "NORMAL" : 6, "TEXCOORD_0" : 7}, "indices" : 4, "material" : 1, "mode" : 4}]}], "nodes" : [{"mesh" : 0, "name" : "Cube_Cube.001"}, {"mesh" : 1, "name" : "Cube.001_Cube.003"}], "scene" : 0, "scenes" : [{"nodes" : [0, 1]}]}